<?xml version="1.0" encoding="UTF-8"?><svg xmlns="http://www.w3.org/2000/svg" xmlns:xlink="http://www.w3.org/1999/xlink" clip-rule="evenodd" fill-rule="evenodd" height="500.0" preserveAspectRatio="xMidYMid meet" stroke-linejoin="round" stroke-miterlimit="2" version="1.0" viewBox="92.2 0.0 315.6 500.0" width="315.6" zoomAndPan="magnify"><path d="M0 0H500V500H0z" fill="none"/><clipPath id="a"><path d="M0 0H500V500H0z"/></clipPath><g clip-path="url(#a)"><g id="change1_1"><path d="M1499.97,564.688C1405.18,564.672 1330.19,641.974 1323.3,737.398L1248.93,737.398C1231.78,737.398 1215.76,746.435 1206.47,757.388C1197.18,768.343 1192.54,780.434 1189.37,791.988L1176.26,839.755L996.359,839.755C947.734,839.755 908.932,881.079 908.932,929.906L908.932,2347.24C908.932,2396.06 947.734,2437.29 996.359,2437.29L2003.68,2437.29C2052.31,2437.29 2091.11,2396.06 2091.11,2347.24L2091.11,929.906C2091.11,881.079 2052.31,839.755 2003.68,839.755L1823.78,839.755L1810.67,791.988C1807.5,780.434 1802.86,768.342 1793.57,757.388C1784.29,746.435 1768.26,737.398 1751.11,737.398L1676.75,737.398C1669.86,641.974 1594.77,564.672 1499.97,564.688ZM1499.96,619.844C1568.21,619.832 1624.2,677.45 1624.19,750.65C1624.15,754.555 1623.86,758.474 1623.51,762.376C1622.79,770.112 1625.36,777.795 1630.59,783.538C1635.82,789.282 1643.22,792.555 1650.99,792.553L1751.1,792.553C1751.11,792.553 1751.11,792.549 1751.12,792.549C1751.2,792.675 1751.31,792.834 1751.49,793.046C1752.85,794.654 1755.58,799.794 1757.45,806.598L1775.74,873.26C1775.95,874.219 1776.21,875.166 1776.52,876.096L1806.06,983.727C1803.69,985.302 1798.81,987.379 1795.11,987.379L1204.82,987.379C1201.09,987.379 1196.21,985.312 1193.87,983.727L1223.89,874.548C1223.99,874.218 1224.08,873.886 1224.17,873.552L1242.58,806.598C1244.45,799.794 1247.17,794.655 1248.53,793.046C1248.71,792.835 1248.83,792.675 1248.9,792.549C1248.92,792.549 1248.92,792.553 1248.93,792.553L1349.04,792.553C1356.82,792.558 1364.25,789.272 1369.48,783.506C1374.71,777.74 1377.27,770.031 1376.51,762.279C1376.13,758.265 1375.89,754.385 1375.84,750.65C1375.83,677.45 1431.72,619.832 1499.96,619.844ZM1499.97,680.116C1457.24,680.116 1423.21,716.363 1423.21,759.023C1423.21,801.683 1457.24,838.025 1499.97,838.025C1542.71,838.025 1576.83,801.683 1576.83,759.023C1576.83,716.363 1542.71,680.116 1499.97,680.116ZM1499.97,735.282C1511.59,735.282 1521.59,744.946 1521.59,759.023C1521.59,773.1 1511.59,782.761 1499.97,782.761C1488.36,782.761 1478.36,773.1 1478.36,759.023C1478.36,744.946 1488.36,735.282 1499.97,735.282ZM996.359,895.018L1161.1,895.018L1139.6,973.347C1133.8,994.478 1144.85,1015.36 1158.14,1026.21C1171.44,1037.06 1187.43,1042.55 1204.84,1042.55L1795.11,1042.55C1812.51,1042.55 1828.61,1037.06 1841.9,1026.21C1855.19,1015.36 1866.24,994.478 1860.44,973.347L1838.95,895.018L2003.68,895.018C2021.43,895.018 2035.96,909.443 2035.96,929.906L2035.96,2347.24C2035.96,2367.7 2021.43,2382.12 2003.68,2382.12L996.359,2382.12C978.616,2382.12 964.078,2367.7 964.078,2347.24L964.078,929.906C964.078,909.443 978.615,895.018 996.359,895.018ZM1272.44,1199.35C1264.98,1199.29 1257.82,1202.26 1252.59,1207.57L1182.93,1275.42L1150.75,1244.18C1143.7,1237.1 1133.38,1234.38 1123.76,1237.06C1114.14,1239.75 1106.72,1247.43 1104.37,1257.14C1102.02,1266.86 1105.09,1277.08 1112.41,1283.88L1163.81,1333.66C1168.77,1338.48 1175.35,1341.25 1182.26,1341.45C1189.7,1341.65 1196.9,1338.85 1202.24,1333.66L1291.02,1247.16C1299.3,1239.47 1302.04,1227.49 1297.95,1216.95C1293.86,1206.41 1283.75,1199.43 1272.44,1199.35ZM1380.08,1286.27C1370.04,1286.05 1360.66,1291.3 1355.61,1299.99C1350.56,1308.69 1350.63,1319.44 1355.8,1328.06C1360.97,1336.68 1370.41,1341.81 1380.46,1341.45L1868.32,1341.45C1878.4,1341.81 1887.88,1336.63 1893.03,1327.95C1898.18,1319.27 1898.18,1308.46 1893.03,1299.78C1887.88,1291.1 1878.4,1285.92 1868.32,1286.28L1380.46,1286.28C1380.33,1286.28 1380.21,1286.27 1380.08,1286.27ZM1272.44,1467.97C1264.98,1467.91 1257.82,1470.88 1252.59,1476.19L1182.93,1544.05L1150.75,1512.81C1143.7,1505.73 1133.38,1503 1123.76,1505.69C1114.14,1508.38 1106.72,1516.06 1104.37,1525.77C1102.02,1535.48 1105.09,1545.71 1112.41,1552.51L1163.81,1602.29C1168.77,1607.1 1175.35,1609.88 1182.26,1610.07C1189.7,1610.28 1196.9,1607.47 1202.24,1602.29L1291.02,1515.79C1299.3,1508.09 1302.04,1496.12 1297.95,1485.58C1293.86,1475.03 1283.75,1468.06 1272.44,1467.97ZM1380.1,1554.9C1370.05,1554.67 1360.67,1559.92 1355.62,1568.61C1350.57,1577.3 1350.64,1588.06 1355.8,1596.68C1360.97,1605.3 1370.41,1610.43 1380.46,1610.07L1868.32,1610.07C1878.41,1610.44 1887.89,1605.27 1893.05,1596.58C1898.2,1587.89 1898.2,1577.09 1893.05,1568.4C1887.89,1559.72 1878.41,1554.54 1868.32,1554.91L1380.46,1554.91C1380.34,1554.9 1380.22,1554.9 1380.1,1554.9ZM1272.44,1736.6C1264.98,1736.54 1257.82,1739.51 1252.59,1744.82L1182.93,1812.58L1150.75,1781.44C1143.71,1774.34 1133.38,1771.61 1123.75,1774.3C1114.12,1776.98 1106.7,1784.67 1104.35,1794.39C1102,1804.11 1105.08,1814.34 1112.41,1821.13L1163.81,1870.92C1168.77,1875.73 1175.35,1878.51 1182.26,1878.7C1189.71,1878.88 1196.92,1876.04 1202.24,1870.82L1291.02,1784.42C1299.3,1776.72 1302.04,1764.75 1297.95,1754.2C1293.86,1743.66 1283.75,1736.68 1272.44,1736.6ZM1380.08,1823.52C1370.04,1823.3 1360.66,1828.56 1355.61,1837.25C1350.56,1845.94 1350.63,1856.69 1355.8,1865.31C1360.97,1873.93 1370.41,1879.06 1380.46,1878.7L1868.32,1878.7C1878.4,1879.06 1887.88,1873.88 1893.03,1865.2C1898.18,1856.52 1898.18,1845.72 1893.03,1837.03C1887.88,1828.35 1878.4,1823.17 1868.32,1823.53L1380.46,1823.53C1380.33,1823.53 1380.21,1823.53 1380.08,1823.52ZM1272.44,2005.23C1264.98,2005.17 1257.82,2008.13 1252.59,2013.45L1182.93,2081.2L1150.75,2050.06C1143.71,2042.97 1133.38,2040.24 1123.75,2042.92C1114.12,2045.61 1106.7,2053.3 1104.35,2063.01C1102,2072.73 1105.08,2082.96 1112.41,2089.76L1163.81,2139.54C1168.77,2144.36 1175.35,2147.14 1182.26,2147.33C1189.71,2147.51 1196.92,2144.67 1202.24,2139.45L1291.02,2053.04C1299.3,2045.35 1302.04,2033.37 1297.95,2022.83C1293.86,2012.29 1283.75,2005.31 1272.44,2005.23ZM1380.46,2092.06C1365.2,2092.06 1352.84,2104.44 1352.84,2119.7C1352.84,2134.96 1365.2,2147.33 1380.46,2147.33L1868.32,2147.33C1883.57,2147.33 1895.94,2134.96 1895.94,2119.7C1895.94,2104.44 1883.57,2092.06 1868.32,2092.06L1380.46,2092.06Z" fill-rule="nonzero" transform="matrix(.267 0 0 .267 -150.518 -150.776)"/></g></g></svg>