<?xml version="1.0" encoding="UTF-8" standalone="no"?><svg xmlns="http://www.w3.org/2000/svg" xmlns:xlink="http://www.w3.org/1999/xlink" fill="#ffffff" height="1000" preserveAspectRatio="xMidYMid meet" version="1" viewBox="-2.9 0.0 933.5 1000.0" width="933.5" zoomAndPan="magnify"><g id="change1_1"><path clip-rule="evenodd" d="M356.5,684.8c0.1-0.4,19.1-140.6-38-186.8c-16.3-13.2-46.8-24.7-82.1-37.9 c-58.7-22.1-129.6-48.7-185.5-101.6c-19,41.8-33.3,84-42,123.9v0.1c-1.5,7-2.6,14.4-3.2,22.2c-3.7,46.9,8.5,107.9,40.9,161.6 C76,714.8,122.4,757.2,189,776.9c-9.1-17.4-13.8-33.5-16.3-44.6c0,0-67.9-49.7-84.7-117.9c0.1,0.1,39.3,39.3,64.7,54.6 c25.9,15.7,49.3,23.6,49.3,23.6l14.4,5.2l1.2,15.2c0,0.2,5.3,74.4,86.2,104c64.6,23.6,117-7.4,136.2-21.6v-41.5l-72.7-46.4 l-12.7-8.1L356.5,684.8L356.5,684.8z M640,861.8c-80.7,29.5-147.1-4.9-176.2-24.9c-29.1,20-95.5,54.5-176.2,24.9 c-5-1.8-9.7-3.7-14.3-5.8c3.4,21.9,10.1,48.1,23.6,69c21.5,33.4,123.7,63.5,166.8,75c43.1-11.4,145.3-41.5,166.8-75 c13.5-20.9,20.2-47.1,23.6-69C649.7,858.1,645,860,640,861.8L640,861.8z M691.2,460c-35.2,13.2-65.7,24.7-82.1,37.9 c-57,46.2-38,186.4-38,186.8l1.9,14.9l-12.7,8.1l-72.7,46.4v41.5c19.2,14.2,71.6,45.2,136.2,21.6c80.9-29.6,86.1-103.8,86.2-104 l1.2-15.2l14.4-5.2c0.1,0,23.4-8,49.3-23.6c25.3-15.3,64.5-54.5,64.7-54.6c-16.8,68.2-84.7,117.9-84.7,117.9 c-2.5,11.1-7.2,27.2-16.3,44.6c66.6-19.7,113-62.1,142.4-110.8c32.4-53.7,44.6-114.6,40.9-161.6c-0.6-7.8-1.7-15.2-3.2-22.2v-0.1 c-8.8-39.9-23.1-82.1-42.1-123.9C820.8,411.3,750,437.9,691.2,460L691.2,460z M711.5,679.1c-0.3-20.6-2.7-38.5-6.1-53.7l0-0.2 l14.4-5.2c0.1,0,23.4-8,49.3-23.6c25.3-15.3,64.6-54.5,64.7-54.6c-16.7,68.2-84.7,117.9-84.7,117.9S732.8,669.8,711.5,679.1 L711.5,679.1z M736.1,96.4c19.9,13,38.8,28.5,56,47.1c35.3,38.3,66.7,81.7,93,127.2c18.7-34.5,32.6-79,38.9-126 c6.6-49,4.9-100.1-8.2-144.7C878.1,27.1,805.7,75,736.1,96.4L736.1,96.4z M42.6,270.7c26.3-45.5,57.7-88.9,93-127.2 c17.2-18.6,36-34.2,56-47.1C122,75,49.5,27.1,12,0C-1.1,44.6-2.9,95.7,3.8,144.7C10.1,191.6,23.9,236.1,42.6,270.7L42.6,270.7z M253.2,415.5c39,14.7,72.8,27.4,95.3,45.6c63.7,51.6,60.1,172.1,56.6,214.5l58.7,37.5l58.7-37.5c-3.5-42.4-7.1-162.9,56.6-214.5 c22.5-18.2,56.3-30.9,95.3-45.6c58.5-22,129.9-48.8,180-102c-26.7-49.3-59.6-96.8-97.4-137.8c-38.4-41.6-87-65.1-137.7-78.3 C567.4,83.8,512.5,81,463.8,81c-48.6,0-103.5,2.8-155.5,16.3c-50.7,13.2-99.3,36.8-137.7,78.3c-37.8,41-70.8,88.4-97.4,137.8 C123.3,366.7,194.7,393.5,253.2,415.5L253.2,415.5z M222.3,625.4c-3.4,15.2-5.8,33-6.1,53.7c-21.3-9.3-37.6-19.6-37.6-19.6 s-67.9-49.7-84.7-117.9c0.1,0.1,39.3,39.3,64.7,54.6c25.9,15.7,49.3,23.6,49.3,23.6l14.4,5.2L222.3,625.4L222.3,625.4z" fill-rule="evenodd"/></g></svg>