<?xml version="1.0" encoding="UTF-8" standalone="no"?><svg xmlns="http://www.w3.org/2000/svg" xmlns:xlink="http://www.w3.org/1999/xlink" fill="#ffffff" height="111.9" preserveAspectRatio="xMidYMid meet" version="1" viewBox="9.1 19.4 125.8 111.9" width="125.8" zoomAndPan="magnify"><g id="change1_1"><path d="M106.9,59.7C106.9,59.7,106.9,59.7,106.9,59.7c-3.7-0.1-7.3,0-11,0H48.7c-4.2,0-8.3,0-12.5,0c-5.6-0.1-10.3,4.5-10.4,10.1 c-0.1,4.5,2.9,8.6,7.2,9.9c1.6,0.4,3.3,0.5,4.9,0.4h68.9c0,0,0.1,0,0.1,0c5.6,0,10.2-4.6,10.2-10.2 C117.1,64.3,112.5,59.7,106.9,59.7z M114.5,70.7c-0.4,3.9-3.7,6.9-7.6,7c0,0-0.1,0-0.1,0H37.3c-2,0.2-4-0.3-5.7-1.3 c-3.5-2.5-4.4-7.3-1.9-10.9c0.6-0.9,1.5-1.7,2.4-2.3c1.6-0.8,3.5-1.2,5.3-1h67c1,0,2.1-0.1,3.1,0C111.8,62.7,114.9,66.5,114.5,70.7 z" fill="inherit"/><path d="M100.3,67.5C100.3,67.4,100.3,67.4,100.3,67.5L100.3,67.5z" fill="inherit"/><path d="M100.2,67.5C100.2,67.5,100.3,67.5,100.2,67.5C100.3,67.5,100.3,67.5,100.2,67.5z" fill="inherit"/><path d="M100,69.2L100,69.2C100,69.1,100,69.1,100,69.2z" fill="inherit"/><path d="M100,69.2C100.1,69.2,100.1,69.2,100,69.2C100.1,69.2,100.1,69.2,100,69.2L100,69.2z" fill="inherit"/><path d="M104.8,71.1c1.1-1.4,1.2-3.3,0.2-4.9c-0.1-0.2-0.2-0.3-0.3-0.4c-0.5-0.5-1.1-1-1.8-1.2c-0.8-0.3-1.6-0.3-2.4-0.1 c-0.8,0.2-1.5,0.7-2.1,1.3c-0.6,0.7-0.9,1.5-1,2.5c-0.1,1.7,0.8,3.3,2.3,4c0.8,0.4,1.7,0.5,2.6,0.4c0.1,0,0.3-0.1,0.4-0.1l1.3,1.9 l0.3,0.4c0.2,0.3,0.4,0.5,0.8,0.6c0.3,0.1,0.7,0.1,1-0.1c0.3-0.2,0.5-0.4,0.6-0.7c0.1-0.3,0.1-0.7-0.1-1L104.8,71.1z M102.9,69.6 C102.8,69.7,102.7,69.8,102.9,69.6L102.9,69.6z M101.8,70.1C101.7,70.1,101.7,70.1,101.8,70.1C101.7,70.1,101.7,70.1,101.8,70.1 h-0.4h-0.1h-0.1l-0.2-0.1c0,0-0.1-0.1-0.1,0c0,0-0.1,0-0.1-0.1l-0.2-0.1c-0.2-0.2-0.2-0.2-0.3-0.3c0-0.1-0.1-0.1-0.1-0.2 c0,0-0.1-0.1-0.1-0.1c0,0,0,0,0,0c0-0.1-0.1-0.2-0.1-0.4c0,0,0,0,0,0c0,0,0-0.1,0-0.1c0,0,0,0,0,0c0,0,0,0,0,0c0-0.1,0-0.2,0-0.3 c0,0,0,0,0,0c0,0,0-0.1,0-0.1c0-0.1,0-0.2,0.1-0.3c0,0,0,0,0,0c0-0.1,0.1-0.1,0.1-0.2l0.1-0.2c-0.2,0.2,0,0,0-0.1 c0-0.1,0.1-0.1,0.2-0.2l0.1-0.1l0,0c0.1-0.1,0.2-0.1,0.3-0.2l0,0c0.1,0,0.1,0,0.2-0.1l0.2,0c0,0,0,0,0,0c0.1,0,0.2,0,0.3,0l0.2,0 l0.2,0.1h0c0.2,0,0.3,0.1,0.4,0.2l0,0l0.1,0.1c0.1,0.1,0.1,0.1,0.2,0.2l0,0c0,0,0,0,0,0l0,0c0.1,0.1,0.1,0.2,0.2,0.3 c0,0.1,0.1,0.1,0.1,0.2c0,0.1,0,0.4,0.1,0.4c0,0,0,0.1,0,0.1c0,0,0,0,0,0.1c0,0,0,0.1,0,0.1c0,0,0,0,0,0.1l-0.1,0.2l0,0.1 c0,0,0,0,0,0c-0.1,0.2-0.1,0.2-0.2,0.3c0,0-0.1,0.1-0.1,0.1l-0.1,0.1c0,0,0,0-0.1,0.1c0,0-0.1,0-0.1,0l-0.2,0.1c0,0,0,0-0.1,0 c0,0-0.1,0-0.1,0C102.1,70.1,102,70.1,101.8,70.1L101.8,70.1z" fill="inherit"/><path d="M48.4,66.4c-0.1,0.1-0.3,0.3-0.3,0.5c-0.1,0.2-0.2,0.4-0.2,0.7l-0.7,2.2l-0.5-2c-0.1-0.4-0.2-0.7-0.3-0.8 c-0.1-0.2-0.3-0.5-0.5-0.6c-0.6-0.5-1.4-0.5-2,0c-0.2,0.2-0.4,0.4-0.5,0.6c-0.1,0.2-0.2,0.4-0.3,0.9l-0.5,1.9L42,67.6 c-0.1-0.3-0.2-0.7-0.4-1c-0.2-0.4-0.7-0.6-1.1-0.5c-0.4,0-0.7,0.1-1,0.4c-0.3,0.2-0.4,0.6-0.4,0.9c0,0.3,0.1,0.7,0.2,1l1.5,4.3 l0.2,0.5c0.1,0.2,0.2,0.4,0.3,0.6c0.1,0.2,0.3,0.4,0.5,0.5c0.2,0.1,0.5,0.2,0.8,0.2c0.5,0.1,1.1-0.2,1.4-0.6 c0.2-0.4,0.4-0.8,0.5-1.2L45,71l0.5,1.7c0.1,0.3,0.2,0.6,0.3,0.8c0.1,0.3,0.3,0.5,0.5,0.7c0.6,0.4,1.4,0.4,2,0 c0.2-0.2,0.4-0.4,0.5-0.6c0.1-0.2,0.2-0.4,0.3-0.8l1.5-4.3c0.1-0.3,0.2-0.7,0.2-1c0-0.4-0.2-0.7-0.5-1C49.8,65.9,49,65.9,48.4,66.4 z" fill="inherit"/><path d="M61.3,66.4c-0.2,0.1-0.3,0.3-0.4,0.6c0,0.1-0.1,0.4-0.2,0.7l-0.7,2.2l-0.5-2c-0.1-0.3-0.2-0.6-0.3-0.8 c-0.1-0.2-0.3-0.5-0.5-0.6c-0.6-0.4-1.4-0.4-2,0c-0.2,0.2-0.4,0.4-0.5,0.6c0,0.2-0.2,0.4-0.3,0.9l-0.5,1.9l-0.6-2.2 c-0.1-0.3-0.2-0.7-0.4-1c-0.2-0.4-0.7-0.6-1.1-0.5c-0.4,0-0.7,0.1-1,0.4C52.1,66.7,52,67,52,67.3c0,0.3,0.1,0.7,0.2,1l1.5,4.3 l0.2,0.5c0.1,0.2,0.2,0.4,0.3,0.6c0.3,0.5,0.8,0.7,1.3,0.7c0.5,0,1-0.2,1.3-0.6c0.2-0.4,0.4-0.8,0.5-1.2l0.5-1.7l0.5,1.7 c0.1,0.3,0.2,0.6,0.3,0.8c0.1,0.3,0.3,0.5,0.5,0.7c0.6,0.4,1.4,0.4,2,0c0.2-0.2,0.4-0.4,0.5-0.6c0.1-0.2,0.2-0.4,0.3-0.8l1.5-4.3 c0.1-0.3,0.2-0.7,0.2-1c0-0.3-0.1-0.6-0.4-0.9C62.6,66,61.9,66,61.3,66.4z" fill="inherit"/><path d="M76,66.5c-0.5-0.5-1.4-0.5-1.9,0c-0.1,0.1-0.3,0.3-0.3,0.5c0,0.1-0.1,0.4-0.2,0.7l-0.7,2.2l-0.6-2 c-0.1-0.3-0.2-0.6-0.3-0.8c-0.1-0.2-0.3-0.5-0.5-0.6c-0.6-0.4-1.4-0.4-2,0c-0.2,0.2-0.4,0.4-0.5,0.6c-0.1,0.2-0.1,0.4-0.3,0.9 l-0.6,1.9l-0.6-2.2c-0.1-0.3-0.2-0.7-0.4-1c-0.2-0.4-0.7-0.6-1.1-0.5c-0.4,0-0.7,0.1-1,0.4c-0.3,0.2-0.4,0.6-0.4,0.9 c0,0.3,0.1,0.7,0.2,1l1.5,4.3l0.2,0.5c0.1,0.2,0.2,0.4,0.3,0.6c0.3,0.5,0.8,0.7,1.3,0.7c0.5,0,1-0.2,1.3-0.6 c0.2-0.4,0.4-0.8,0.5-1.2l0.5-1.7l0.5,1.7c0.1,0.3,0.2,0.6,0.3,0.8c0.1,0.3,0.3,0.5,0.5,0.7c0.3,0.2,0.6,0.4,1,0.3 c0.4,0,0.7-0.1,1-0.3c0.2-0.2,0.4-0.4,0.5-0.6c0.1-0.2,0.2-0.5,0.3-0.8l1.5-4.3c0.1-0.3,0.2-0.7,0.2-1C76.4,67,76.3,66.7,76,66.5z" fill="inherit"/><path d="M76.7,71.9c-0.3,0.3-0.5,0.7-0.4,1.1c0,0.4,0.2,0.9,0.5,1.2c0.3,0.3,0.7,0.4,1.1,0.4c0.4,0,0.8-0.1,1.1-0.4 c0.3-0.3,0.5-0.7,0.5-1.2c0-0.4-0.2-0.8-0.5-1.1C78.2,71.3,77.3,71.3,76.7,71.9z" fill="inherit"/><path d="M129.5,19.7c-1.2-0.2-2.5-0.3-3.7-0.2H18.2c-1.3-0.1-2.5,0-3.8,0.3c-3.6,1-5.3,4.3-5.3,7.8v73.8c0,3.4,1.4,6.5,4.8,7.7 c1.5,0.4,3.1,0.6,4.7,0.4h79.9l1.9,16.2l0.4,3.7c0.1,1.1,1.8,1.9,2.3,0.6l5.8-12.6l13.4,1.3c0.3,0.2,0.6,0.1,0.9,0 c0.6-0.2,0.8-0.8,0.7-1.4c0-0.3-0.2-0.6-0.5-0.9l-9.4-7h12c1.4,0.1,2.9-0.1,4.2-0.5c3.3-1.3,4.7-4.4,4.7-7.7V27.5 C134.9,23.9,133.1,20.6,129.5,19.7z M11.6,26.7c0-2.5,1.9-4.6,4.4-4.8c2.8-0.2,5.6,0,8.3,0h94.6c2.9,0,5.8-0.1,8.8,0 c2.6,0,4.7,2.1,4.8,4.8v9.2H25.5c-4.6,0-9.3-0.2-13.9,0v-8C11.6,27.5,11.6,27.1,11.6,26.7z M107.1,115.4l-4.3,9.3l-2.5-21.5l-0.1-1 l9.1,6.8c0,0,0.1,0.1,0.2,0.1l8.9,6.6l-10.3-1C107.7,114.8,107.3,115,107.1,115.4z M132.4,102c0,2.1-1.4,4-3.4,4.7 c-1.2,0.2-2.4,0.3-3.6,0.2h-14.8l-8.4-6.2l-3-2.2c-0.6-0.3-1.4-0.1-1.7,0.5c-0.1,0.2-0.2,0.4-0.2,0.6l0.8,7.4H19.3c-1,0-2,0-2.9,0 c-2.6,0-4.7-2.1-4.8-4.8c0-0.3,0-0.7,0-1V38.4h106.9c4.6,0,9.3,0.2,13.9,0v62.3C132.4,101.2,132.4,101.6,132.4,102z" fill="inherit"/><path d="M24.9,32.2c0.7-0.8,1-1.7,1-2.7c0,0,0,0,0,0c0,0,0,0,0,0c0,0,0,0,0,0c0,0,0,0,0,0c0-1.8-1.1-3.4-2.8-4 c-1.6-0.6-3.5-0.1-4.6,1.2c-1.5,1.8-1.3,4.4,0.4,6C20.7,34.2,23.3,34,24.9,32.2z M23.4,29.2C23.4,29.2,23.4,29.2,23.4,29.2 c0,0.1,0,0.1,0,0.1C23.4,29.3,23.4,29.3,23.4,29.2z M19.9,29.3c0-0.1,0-0.1,0-0.2c0-0.1,0.1-0.3,0.1-0.4c0-0.1,0.1-0.1,0.1-0.2 c0-0.1,0.1-0.1,0.1-0.2c0,0,0,0,0,0c0,0,0,0,0,0c0.1-0.1,0.2-0.2,0.3-0.3l0.1,0c-0.1,0.1,0,0,0.1,0c0.1-0.1,0.3-0.1,0.4-0.2 c0,0-0.3,0.1-0.1,0l0.2-0.1h0.1h0c0,0,0,0,0.1,0c0,0,0.1,0,0.1,0c0,0,0,0,0,0h0.4l0.5,0.1c0.2,0.1,0.2,0.1,0.2,0.1l0.1,0.1l0,0 c0,0,0,0,0,0l0.3,0.3l0.1,0.2c0,0.1,0.1,0.1,0.1,0.2c0,0.2,0.1,0.2,0.1,0.3c0,0.1-0.1,0.2-0.1,0.3c0,0,0,0,0,0c0,0.1,0,0.1,0,0.2 c0,0-0.1,0.3-0.1,0.4c0,0,0,0.1,0,0.1c0,0,0,0-0.1,0.1c-0.1,0.1-0.2,0.3-0.2,0.4c0,0-0.1,0.1-0.1,0.1c0,0-0.1,0.1-0.1,0.1l0,0 c-0.1,0-0.2,0.2-0.3,0.2L22.2,31l-0.4,0.1c0,0,0,0,0,0c0,0-0.1,0-0.1,0c0,0,0,0,0,0c0,0-0.1,0-0.1,0c-0.1,0-0.2,0-0.4,0L21,31.1 L20.8,31c-0.2-0.1,0.1,0,0.1,0c-0.1-0.1-0.2-0.1-0.3-0.2l-0.2-0.1c-0.2-0.2-0.2-0.2-0.3-0.3L20,30.2l0-0.1v-0.1 c-0.1-0.1,0-0.1,0,0.1c0-0.1-0.1-0.3-0.1-0.4v-0.2C19.9,29.5,19.9,29.4,19.9,29.3z" fill="inherit"/><path d="M19.9,29.3C20,29,19.9,29.2,19.9,29.3L19.9,29.3z" fill="inherit"/><path d="M21.7,31.2C21.7,31.2,21.7,31.2,21.7,31.2C21.7,31.2,21.7,31.2,21.7,31.2l0.1,0C21.8,31.1,21.7,31.1,21.7,31.2z" fill="inherit"/><path d="M30,29.2C30.1,28.9,30,29.1,30,29.2L30,29.2z" fill="inherit"/><path d="M35,32.2c0.7-0.8,1-1.7,1-2.7c0,0,0,0,0,0c0,0,0,0,0,0c0,0,0,0,0,0c0,0,0,0,0,0c0-1.8-1.2-3.4-2.8-4 c-1.6-0.6-3.5-0.1-4.6,1.2c-1.5,1.8-1.3,4.4,0.4,6C30.8,34.2,33.5,34,35,32.2z M33.5,29.2C33.5,29.2,33.5,29.2,33.5,29.2 c0,0.1,0,0.1,0,0.1C33.5,29.2,33.5,29.2,33.5,29.2z M30,29.2c0-0.1,0-0.1,0-0.2c0-0.1,0.1-0.3,0.1-0.4l0.1-0.2l0.1-0.2 c0.1-0.2,0,0,0,0c0.1-0.1,0.2-0.2,0.3-0.3l0,0c0,0,0.1,0,0.1,0c0.1-0.1,0.3-0.1,0.4-0.2c0,0-0.3,0.1-0.1,0l0.2-0.1h0.1h0 c0,0,0,0,0.1,0c0,0,0.1,0,0.1,0c0,0,0,0,0,0H32l0.5,0.1c0.2,0.1,0.2,0.1,0.2,0.1l0.1,0.1l0.1,0l0.3,0.3l0.1,0.2l0.1,0.2 c0.1,0.2,0.1,0.3,0.1,0.4c0,0.1-0.1,0.2-0.1,0.3c0,0,0,0,0,0c0,0.1,0,0.1,0,0.2c0,0.1-0.1,0.3-0.1,0.4c0,0,0,0.1,0,0.1 c0,0,0,0-0.1,0.1c-0.1,0.2-0.2,0.3-0.2,0.4c0,0-0.1,0.1-0.1,0.1l-0.1,0.1l0,0c-0.1,0-0.3,0.2-0.3,0.2l-0.1,0L32,31.1c0,0,0,0,0,0 c0,0-0.1,0-0.1,0c0,0,0,0,0,0c0,0-0.1,0-0.1,0c-0.1,0-0.3,0-0.4,0L31.2,31L31,31c-0.2-0.1,0.1,0,0.1,0c-0.1-0.1-0.2-0.1-0.4-0.2 c0,0-0.1-0.1-0.2-0.1c0,0-0.3-0.3-0.3-0.3l-0.1-0.1l-0.1-0.1v0c0,0-0.1-0.3-0.1-0.4c0-0.1,0-0.1,0-0.2C30,29.5,30,29.3,30,29.2z" fill="inherit"/><path d="M31.9,31.1C31.9,31.1,31.9,31.1,31.9,31.1C32,31.1,32,31.1,31.9,31.1l0.1,0C32,31.1,31.9,31.1,31.9,31.1z" fill="inherit"/><path d="M40.2,29.2C40.2,28.9,40.2,29.1,40.2,29.2L40.2,29.2z" fill="inherit"/><path d="M45.2,32.2c0.7-0.8,1-1.7,1-2.7c0,0,0,0,0,0c0,0,0,0,0,0c0,0,0,0,0,0c0,0,0,0,0,0c0-1.8-1.1-3.4-2.8-4 c-1.6-0.6-3.5-0.1-4.6,1.2c-1.5,1.8-1.3,4.4,0.4,6C41,34.2,43.6,34,45.2,32.2z M43.7,29.2C43.7,29.2,43.7,29.2,43.7,29.2 C43.7,29.2,43.7,29.2,43.7,29.2C43.7,29.2,43.7,29.2,43.7,29.2z M40.2,29.2v-0.2c0-0.1,0.1-0.3,0.1-0.4l0.1-0.2 c0-0.1,0.1-0.1,0.1-0.2c0.1-0.1,0.2-0.2,0.3-0.3l0.1-0.1c-0.1,0.1,0,0,0.1,0c0.1-0.1,0.3-0.1,0.4-0.2c0,0-0.3,0.1-0.1,0l0.2-0.1 h0.1h0c0,0,0,0,0.1,0c0,0,0.1,0,0.1,0c0,0,0,0,0,0h0.4l0.5,0.1c0.1,0,0.2,0.1,0.2,0.1L43,28l0,0c0,0,0,0,0,0l0.3,0.3l0.1,0.2 l0.1,0.2c0.1,0.2,0.1,0.3,0.1,0.4c0,0.1-0.1,0.2-0.1,0.3c0,0,0,0,0,0c0,0.1,0,0.1,0,0.2c0,0.1-0.1,0.3-0.1,0.4c0,0,0,0.1,0,0.1 c0,0,0,0,0,0l-0.2,0.4c0,0-0.1,0.1-0.1,0.1c0,0-0.1,0.1-0.1,0.1l0,0c-0.1,0-0.2,0.2-0.3,0.2L42.5,31l-0.4,0.1c0,0,0,0,0,0 c0,0-0.1,0-0.1,0c0,0,0,0,0,0c0,0,0,0-0.1,0c-0.1,0-0.2,0-0.4,0l-0.2-0.1L41.2,31c-0.2-0.1,0.1,0,0.1,0c-0.1-0.1-0.2-0.1-0.3-0.2 l-0.2-0.1c-0.2-0.2-0.2-0.2-0.3-0.3l-0.1-0.2l-0.1-0.1V30c0-0.1,0-0.1,0,0c0-0.1-0.1-0.2-0.1-0.3c0-0.1,0-0.1,0-0.2 C40.2,29.5,40.2,29.3,40.2,29.2z M40.5,28.3C40.5,28.2,40.5,28.2,40.5,28.3L40.5,28.3z" fill="inherit"/><path d="M42,31.2C42,31.2,42,31.2,42,31.2C42.1,31.2,42.1,31.2,42,31.2l0.1,0C42.1,31.1,42,31.1,42,31.2z" fill="inherit"/></g></svg>