<?xml version="1.0" encoding="UTF-8"?><svg xmlns="http://www.w3.org/2000/svg" xmlns:xlink="http://www.w3.org/1999/xlink" height="506.4" preserveAspectRatio="xMidYMid meet" version="1.0" viewBox="0.0 0.1 364.4 506.4" width="364.4" zoomAndPan="magnify"><g id="change1_1"><path d="M363.4,448c0,0-29.5,31.6-86.3,43S49,506.5,1.1,470c5.2-20,4.5-105.3,12-135.3c7.6-29.9,37.2-43,52.5-52.6 c0,0,3-18.8,7.6-23.7s85.7-55.7,173.5-39.6c6.4,13.3,2.8,24.9,4.9,28.7c1.8,3.2,8.5,15.9,10.4,25.6l0,0 c14.6,7.1,39.5,22.2,52.4,47.5C363.4,416.5,363.4,448,363.4,448z" fill="#F3EFF9"/></g><g id="change2_1"><path d="M169.9,208.6c-0.8,2.6-0.1,5.5-0.4,8.2c-0.4,3.4-5.9-2.7-9.7-5.8c-0.7-0.6,1.1,8.8,0.6,7.9 c-2.8-5.3-8.9-7-14.6-7.2c-5-0.2-10.1,0.7-15.1,0c-7.1-0.9-13.5-4.8-18.9-9.5s-9.9-10.3-14.7-15.6c-11.3-12.1-24.4-22.3-37.6-32.3 L46,160.9c2.4-1.7,6.1-9.7,6.1-9.7s-13.6-20.3-12.2-35.9c0,0-6,9.8-5.2,16.7c-3.7-5.1-9.1-31.6-4.4-43.8c-5.7-0.9-9.2-2.9-9.2-2.9 s4.2-0.7,11.5-5.2c7.3-4.5,8-24.6,23.3-34.9c0,0-2.4,0.9-8.4-0.8c8.9-2.4,9.9-19.4,40-14.6c-7-4.3-9.8-13.8-9.8-13.8 S81,21.6,91.2,23s11.3-8.4,31-1c-4.3-2.7-7.5-5.6-10.3-10.5c4.6,5.7,16.9,4.3,23.7,4c6.8-0.3,22,0.3,32.4,8.9c0,0,1.3-2.7-1.7-5.6 c-2.9-2.8-7.2-8.2-5-17.7c0-0.2,0.3-0.1,0.3,0c0.6,5.9,7.1,8.6,15.7,13.3c9.1,4.9,10.2,14.9,9.5,24.8c24.5-16,33-1.7,33-1.7 c-11-1-19.9,5.1-26.2,10.8c21.2-2.7,25.1,7.8,25.1,7.8c-5.4-1.9-13.3,0-13.3,0c11.8,3.5,17.3,22.4,28.9,26.5 c-5.1,4.6-10.5,1.9-10.5,1.9c6.5,7.5,1.3,23.5,8.7,34.8c0,0-5.6-1.8-9.7-5.6c2.1,6-4.3,14.7-3.8,25.6c-4.1-2.5-4-6.9-4-6.9 c-2.7,6.4-3.9,19.2-2.9,28.6c-6.9-4.8-9.1-12.2-9.1-12.2c-4.5,7.6-5.9,27.2-5.9,27.2s-4.8-9-4.2-18.9c-2.3,14,2.5,27,2.5,27 s-10.9-6.2-11-11.3c0,0,0.9,13.9-3.2,22C181.7,200.3,171.5,203.2,169.9,208.6z" fill="#472726"/></g><g id="change3_1"><path d="M118.8,234.5c0,0-2.2-13.9-7.8-13.8s-18.6,10-25.5,8.1c-6.9-1.9-8.5-9.7-10.1-13c-1.6-3.3-10-8.4-9.7-12.3 c-3.2-0.2-5.9-5.1-8.2-9.5s-11.6-10-11.5-13c18.4-7.6,13.5-26.8,13.5-26.8s11.7-5.3,17.2-13.2c0,0-1.4,4.5-3.5,7.6 c0,0,19.5-8.2,38.5-45.6c0,0,9.5,23.2,31.7,28.6c-1,9.3-4.9,24.4-4.9,24.4c6.7-0.7,10.8-14.1,10.8-14.1c5.3-0.4,10.8-2.1,13.3-5.8 c9.2,2.6,11.6,10.3,9.5,19.9c-1.9,8.6-9.4,12.4-14.3,15c0,0-4.8,10.8,2,17.3c0.9-5.2,4.9-9.3,4.9-9.3s-1.3,10.8,9.8,15.2 c-2.2-5.1,0-10.4,0-10.4s5,13,6,11.4l9.4,21.7C147.2,221.5,118.8,234.5,118.8,234.5z M182.5,254c23.9-3.9,53.5-8.7,69.1-5.5l0.4-2 c-16-3.3-45.8,1.6-69.9,5.5c-12.1,2-22.6,3.7-28,3.7C154.1,255.8,170.3,256,182.5,254z M100.5,266.4l-1.6-0.7c0,0,49.9,18,82.4,23.5 c25.3,4.3,69.1-6.3,69.1-6.3c-11.4,7.8-26.1,10.8-41.9,10.8C167.9,293.7,119.9,274.3,100.5,266.4z M92.1,319.4 c0,0-26.9-14.6-52.5-9.9c-11.2,2-18.4,9.6-21.4,14.5l-1.7-1c3.2-5.2,11-12.4,22.6-15.4C54.6,303.6,72.4,307.6,92.1,319.4z M161,403.8c0,0-1.3,19.1-5.5,35.4c-3.2,12.7-7.2,24.6-11,27.7c0,0,5.6-15.1,8.8-27.3C156.7,426.4,159.6,411.7,161,403.8z M181.3,468.9c12.4-6.2,25.3-14.5,25.6-14.6c0,0-11,9.5-22.7,15.4c-8.2,4.2-16.7,7.7-21.8,7.7c-0.7,0-1.3-0.1-1.9-0.2 C160.4,477.2,172.9,473,181.3,468.9z M350.5,459.7l-2,0.3c-0.9-6.5-5.3-24.1-9.5-41.1c-3.5-14-7.1-28.4-8.8-36.9 c-3.7-18.3-34.3-87-34.3-87c8.4,8.8,32.5,68.2,36.2,86.6c1.7,8.5,5.3,22.9,8.8,36.9C345.4,436.2,349.6,453,350.5,459.7z M269.8,299.6c6.5,17.8,14.5,39.9,10.6,52.4l-0.2,0.7c-0.8,2.6-1.7,5.4-2.7,8.4c-3.9,25.5-11.3,39.9-39.2,46.4 c-29.9,7-62.1-20.8-77.3-38.1c-9.2-10.4-16.5-20.9-20.8-27.6c-16.5-19.9-29.6-40.3-37.1-51.9c-3.3-5.1-5.7-8.9-6.7-9.9l-0.1-0.1 c-1.7-2.4-3.6-4.3-5.4-5.8c-2.2,0.6-16.5,4.4-24.8,8.7l-0.9-1.8c0.2-0.1,0.5-0.3,0.7-0.4l2.2-10.1c3.5-2.8,7.3-3.5,10.8-3.1 c3.4,0.1,11.8,1.4,19,11.1c1.1,1.2,3.4,4.8,6.8,10.1c16,24.8,58.4,90.9,103.5,103.1c8.7,2.3,16.2,3.4,22.8,3.4 c33.9,0,42.3-27.3,47.3-43.2l0.2-0.7c3.7-11.9-4.5-34.6-10.6-51.1c-3.6-10-6.5-17.9-6.3-21.6c0.1-1.5-0.1-3.2-0.4-5.3l2-0.4 c0.4,2.2,0.6,4.1,0.5,5.8C263.4,282.1,266.4,290.2,269.8,299.6z M146.4,498.7l-8.1-0.2l-1,0c0-0.3,0.3-31.8-4.2-66.7 c-4.9-38.5-23.7-89.9-23.7-89.9c9.5,13.9,16.7,38.9,21.5,63.4c0-0.1,0-0.2-0.1-0.3c0.2,0.9,0.4,1.9,0.6,2.9c0.2,1.1,0.4,2.1,0.6,3.2 C144.2,476.5,146.4,498.7,146.4,498.7z" fill="#F2AEA2"/></g><g id="change1_2"><path d="M93.3,151.1c10.7-3.1,22.7,1.4,22.7,1.4s-1.4,6.9-15.5,10.2s-24,0.9-24,0.9C78,157,82.5,154.2,93.3,151.1z" fill="#F3EFF9"/></g><g id="change4_1"><path d="M174.7,183.7c0,0,5,13,6,11.4l3.1,7.1c-11.4,2.6-23-10-23.7-13.9c0.9-5.2,4.9-9.3,4.9-9.3 s-1.3,10.8,9.8,15.2C172.5,189,174.7,183.7,174.7,183.7z M126.1,231.8l15.7-30.3c0,0-5.1,3.3-10.9,7.2l-20.7,12.1 c0.3,0,0.6-0.1,0.8-0.1c5.7-0.1,7.8,13.8,7.8,13.8S122.6,232.7,126.1,231.8z M160.2,138.6c0,0,6,0.7,6.8,9c0.6,6.2-7.9,19-15.9,17.6 c-3.6-2.2-0.3-5.5,1.1-8.4c1.4-2.9-0.3-4.2-0.3-8s2-6.8,2-6.8l5.9-3.3" fill="#8C5D58"/></g><g id="change2_2"><path d="M100.4,162.7c-3.4,0.9-3.9-8.8-1.2-12.6c8.8-0.6,16.7,2.4,16.7,2.4S114.5,159.5,100.4,162.7z M64.8,203.1 l1.8,0.9c0.8-1.1,10-5.1,10-5.1C75.8,198.9,65.9,200.9,64.8,203.1z M157.5,170.1c-4.2,2.2-6,3.1-6,3.1c0,0,2.7,1,6.9-1.3 L157.5,170.1z M103.9,224.2c11-4.6,23.8-12.5,27-15.5c0,0-16.9,9.1-27.8,13.7L103.9,224.2z M151.6,160.7c0.2-0.2,0.4-0.5,0.6-0.7 c1.4-1.8,2-4.2,1.6-6.5c-0.1-0.7-0.3-1.3-0.5-1.9c-0.2-0.5-0.3-1-0.4-1.4c-0.7-3.3,3.2-10.1,3.2-10.1c-3.8,1.8-6.1,6.4-5.2,10.6 c0.1,0.6,0.3,1.1,0.5,1.6c0.2,0.6,0.4,1.1,0.5,1.7c0.3,1.7-0.1,3.5-1.2,4.9c-0.2,0.2-0.3,0.4-0.5,0.6c-0.5,0.6-1.2,1.3-1.4,2.3 c-0.3,0.9,0,2,0.6,2.7c0.4,0.5,1,0.8,1.6,0.8c0.1,0,0.2,0,0.3,0C151.1,165.2,149.4,163.1,151.6,160.7z" fill="#472726"/></g><g id="change1_3"><path d="M114.7,155c-3.8,1.6-8.3,2.7-11.1,1.5c-3-1.3-4.6-2.9-5.4-4.2c0.3-0.9,0.6-1.6,1-2.3 c8.8-0.6,16.7,2.4,16.7,2.4S115.7,153.6,114.7,155z" fill="#F3EFF9"/></g><g id="change4_2"><path d="M74.3,63.5c-7.5,8-13.6,18.6-16.4,23.7c-1.4-0.6-2.7-1.3-3.8-2.4c-1.5-1.7-2.1-4.1-3.3-6s-3.5-3.7-5.7-2.9 c-0.6,0.2-1.2,0.6-1.8,1.1c-9.1,16.7-9.6,35.2-7.4,46.4c-1,2.8-1.7,5.9-1.4,8.6c-3.7-5.1-9.1-31.6-4.4-43.8 c-5.7-0.9-9.2-2.9-9.2-2.9s4.2-0.7,11.5-5.2c7.3-4.5,8-24.6,23.3-34.9c0,0-2.4,0.9-8.4-0.8c8.9-2.4,9.9-19.4,40-14.6 c-7-4.3-9.8-13.8-9.8-13.8S81,21.6,91.2,23c9.2,1.3,11-6.6,25.7-2.7c2.6,2.7-24.4,7.2-14.2,14.5c-9-2.3-26.8,5.8-26.8,5.8 c3.3-0.1,10.5,2.7,10.5,2.7c-5-0.2-10.6,1.1-16.8,4.7c-1.9,1.4-4.6,4.2-3.6,7c0.6,1.8,3,2.2,4.5,3.2C72.3,59.5,73.3,61.5,74.3,63.5z M97.4,81.9c-1.7-1.3-2.8-3.2-4.2-4.8c-2.7-3-6.3-4.8-10-6.3c-2.1-0.8-4.2-1.5-5.8-3c-0.4-0.3-0.7-0.7-1-1.1 c-5.3,8.6-9.1,17.6-11,22.7c3,0.9,5.8,2.2,7.5,4.7c0.8,1.2,1.4,2.5,2.4,3.5c2.1,2,5.4,1.9,8.3,1.8c3.9-0.1,7.9,0.4,11.2,2.5 c3.3,2.1,5.5,6.2,4.4,9.9c11.1-11.9,11.5-32.3,11.5-32.3C108,83.8,101.4,85,97.4,81.9z M194.3,63.4c1.5,2-1.6,5-2.9,7.2 c-1.3,2.2-4,3.4-6.5,3c-1.8-0.3-3.3-1.3-5.1-1.7c-3.5-0.8-7.1,0.8-10.2,2.7c-3,1.9-6,4.2-9.5,5.1c-3.5,0.8-7.2,0.1-10.6,1.2 c-2.9,0.9-5.3,3.2-8,4.5s-7,1.3-8.7-1.2c-1.5,8.3-1.1,17,1,25.1c1.5-3.3,6.3-4.1,9.9-4.1c3.6,0.1,7.4,0.7,10.6-1 c1.4-0.7,2.5-1.8,3.8-2.6c8.2-5.2,20.3,1.1,28.3-4.4c1.3-0.9,2.5-2.2,4-2.9c4.1-2,9,0.8,13.5,0.2c3.3-0.5,6-2.6,9-4.2s6.9-2.2,9.4,0 C216.8,77.5,194.3,63.4,194.3,63.4z M121.2,85.4c-0.9,3.8-1.9,7.5-2.8,11.3c-0.4,1.7-0.9,3.5-2,4.9c1.5,1.7,4.5,3.3,6.7,3 C121.8,98.3,121,91.9,121.2,85.4z" fill="#8C5D58"/></g><g id="change5_1"><path d="M188.5,106C188.5,106,188.5,106,188.5,106C188.5,106,188.5,106,188.5,106z M188.5,106.1c0,0.2,0,1,0,2.3 C188.5,107.6,188.5,106.8,188.5,106.1z M50.2,124.5c0,0,3.9-14,10.1-29.9C64.3,84,77.3,62.7,77.3,62.7 C55.5,84.8,50.2,124.1,50.2,124.5z M118,146.7l1.2-0.5c0,0.1-1,3.7-2.3,6.8c-5.3,10.2-24.4,11.1-24.4,11.1s2.3-0.5,5.4-1.4 c0,0-0.1-0.1-0.1-0.1c-1.5-2.2-1.7-7-0.6-10.5c-11.9,1.3-19,6-20.8,11.6c0.6-7.5,7.2-16.4,37.7-16.9H118z M108.7,158.1 c0.2-0.1,0.3-0.2,0.5-0.3c-0.1,0-0.3,0.1-0.4,0.1C108.7,157.9,108.7,158,108.7,158.1z M99.4,151.8c-0.1,0.2-0.2,0.5-0.3,0.7 c1.7,2.2,4.5,3.5,7.6,3.5c3.1,0,6-1.4,7.7-3.7C108.9,151.6,103.9,151.5,99.4,151.8z M100.2,161.9c1.3-0.5,2.7-1,4-1.6 c-0.5-0.7-0.7-1.7-0.4-2.6c-2-0.5-3.7-1.4-5.2-2.8c-0.3,2.6,0,5.3,0.8,6.5C99.8,161.8,100.1,161.9,100.2,161.9z M364.4,448v0.4 l-0.3,0.3c-0.3,0.3-30.3,32-86.8,43.3c-21.2,4.2-62.2,8.1-109.4,8.1c-10.5,0-21.3-0.2-32.2-0.6c-38.4-1.4-107-7.1-135.2-28.6 L0,470.4l0.2-0.6c2.3-8.9,3.5-31.8,4.7-56c1.5-29.5,3.2-62.8,7.4-79.3c6.6-26.2,29.3-39.3,45.8-49c2.4-1.4,4.7-2.7,6.8-4 c0.5-3,3.4-19.1,7.8-23.8c2.4-2.6,19.8-13.7,45.2-23.8c-0.7-3.9-3-12.2-6.7-12.2c-2.1,0.1-5.6,1.7-9.4,3.5c-5.6,2.7-12,5.8-16.4,4.5 c-6.2-1.7-8.4-7.6-9.9-11.4c-0.3-0.8-0.6-1.5-0.9-2.1c-0.6-1.2-2.3-2.8-4-4.4c-2.6-2.5-5.4-5-5.8-7.5c-3.4-0.9-6-5.8-8.1-9.8 c-1-1.9-3.6-4.2-5.9-6.3c-3.6-3.2-5.8-5.3-5.7-7.2l0-0.7l0.6-0.2c15-6.2,13.9-20.2,13.2-24.4l-12.4,6.1l-1-1.7 c1.7-1.2,4.3-6.4,5.5-8.8c-1.9-2.9-11.3-18.2-12.1-31.9c-1.6,3.4-3.6,8.5-3.2,12.5l0.4,3.8l-2.2-3.1c-3.6-5-9-30.6-5-43.6 c-5.1-1-8.2-2.7-8.4-2.8l-2.5-1.4l2.9-0.5c0,0,4.1-0.7,11.1-5c2.8-1.7,4.6-6.2,6.8-11.3c2.9-6.9,6.4-15.3,13.8-21.5 c-1.4-0.1-3.2-0.4-5.5-1.1l-3.4-1l3.4-0.9c2.4-0.7,4.3-2.6,6.5-4.9c4.9-5.2,11.6-12.2,30.3-10.2c-5-4.8-7.2-11.7-7.3-12l-2.1-7 l3.9,6.2c0,0,3.4,5.2,13,6.5c3.5,0.5,5.9-0.5,8.6-1.6c3.9-1.6,8.2-3.4,16.8-1.2c-2-1.8-4-4.1-5.7-7.2l1.6-1.1 c3.8,4.7,13.9,4.1,20.6,3.8c0.8,0,1.6-0.1,2.2-0.1c4.7-0.2,20.4-0.2,31.7,8c-0.1-0.8-0.5-1.9-1.7-3c-5.2-4.9-7-11.2-5.3-18.7 c0.1-0.6,0.6-0.9,1.2-0.9c0.6,0,1,0.5,1.1,1c0.5,4.7,5.4,7.3,12.1,10.9c1,0.5,2,1.1,3.1,1.7c9.3,5.1,10.5,15.1,10.2,23.8 c9.2-5.7,17.2-7.8,23.8-6.3c6.3,1.4,8.9,5.7,9,5.9l1,1.7l-2-0.2c-7.7-0.7-15.2,2.1-23,8.5c18.9-1.4,22.8,8.3,22.9,8.8l0.7,2l-2-0.7 c-3-1-6.8-0.9-9.5-0.5c4.7,2.6,8.4,7.6,12.1,12.3c4.1,5.4,8.3,10.9,13.7,12.9l1.6,0.6l-1.2,1.1c-3.2,2.9-6.6,3.2-8.9,2.9 c1.9,3.7,2.3,8.6,2.6,13.7c0.4,6.5,0.9,13.3,4.5,18.8l1.5,2.4l-2.7-0.9c-0.2-0.1-4.2-1.4-7.9-4.1c0.1,2.7-0.8,5.6-1.8,8.9 c-1.3,4.2-2.7,8.9-2.4,14.2l0.1,1.9l-1.6-1c-1.9-1.2-3.1-2.7-3.7-4.1c-1.8,6.5-2.6,16.8-1.8,24.9l0.2,2.1l-1.8-1.2 c-4.9-3.3-7.4-7.9-8.6-10.6c-3.5,8.3-4.8,24.6-4.8,24.8l-0.2,3.4l-1.6-3c-0.1-0.2-1.6-3-2.8-7.2c0.6,8.2,2.8,14.4,2.9,14.5l0.9,2.6 l-2.4-1.3c-0.8-0.5-6.3-3.7-9.4-7.5c-0.1,4.9-0.7,12.4-3.4,17.7l8.9,20.6c17.7-1.7,36.8-1.5,56.3,2.1l0.5,0.1l0.2,0.5 c4.1,8.6,4.2,16.4,4.2,22.1c0,3,0,5.4,0.7,6.5c6.4,11,9.7,23,10.4,25.4c14.2,7,39.5,22.3,52.4,47.7 C363.9,415.2,364.4,446.7,364.4,448z M49.5,158.1l8.8-4.3l0,0l0.8-0.3c0.1-0.1,11.4-5.2,16.8-12.8c3.2-6.7,10.4-28.6,10.4-28.6 c-0.2,0.9-5.4,22.6-8.6,29.5c-0.1,0.3-0.8,2.4-1.8,4.7c6.1-3.8,20.8-15.4,35.1-43.5l0.1-0.1c2.6-5,5.2-13.9,5.2-14 c0,0-0.8,9.4-3.3,14.6c1,2.2,6.2,13,16.4,20.6c-3.4-9-2.9-26.8-2.8-29.2c0,0,1.9,28.2,6.7,31.9c2.8,1.7,5.9,3,9.4,4 c1.6-11.2-0.8-20.6-0.8-20.7c0,0,4.6,10,2.6,22.1c-0.8,7.5-3.4,18.6-4.5,22.8c4.2-2,7.5-9.8,8.4-13l0.2-0.7l0.1,0 c5.6-12.1,6.6-27.6,6.6-27.6c0,0.6,0.9,15.1-4.3,27.4c5.1-0.6,9-2.5,10.9-5.2l0.4-0.6l0.1,0c4.9-6.2,8-22.5,8-22.7 c0,0-1.3,16.2-6,23.3c2.5,0.9,4.6,2.3,6.1,4c4.7-2.5,17.3-16.9,18-31.4c-0.1,4-0.5,12.1-2.7,16.3c-1.7,3.3-3.7,6.2-5.7,8.8 c-0.4,1.8-1.6,5.7-2.3,8.1c2.9-1.1,9-3.8,14.8-9c4.4-3.9,13.1-15.7,13.1-15.7c-7.8,21.1-28.9,27.2-29.2,27.3l-1.8,0.5l0.5-1.8 c0,0,1-3.2,1.8-6c-2,2.1-3.9,3.7-5.3,4.5c2.3,3.7,2.9,8.8,1.5,15c-1.9,8.8-9.4,12.8-14.5,15.5c-0.6,1.6-3.2,9.2,0.7,14.5 c1.2-3.8,3.7-6.8,4.5-7.7c0.5-4.8,2.5-8.7,2.6-8.8c0,0-0.1,3-0.4,6.5l0.1-0.1l-0.3,3c0,0.4-0.9,8.8,7.1,13.2c-0.9-4,0.2-7.5,0.6-8.6 c-1.5-6.4,0.5-15.6,0.6-16c0,0-0.1,9.8,1.4,15.8c1.5,4,3.5,8.5,4.6,10.2c3.3-7.2,3-18.5,2.9-20.5c0-0.1,0-0.2,0-0.4l0.5,0l-0.5,0 c0.1-5.3-0.4-9.2-0.9-12.7c-0.5-3.5-0.9-6.5-0.4-9.5c0,0,1.9,5.8,2.4,9.2c0.5,3.4,1,7.6,0.9,13c0,0.1,0,0.1,0,0.3 c0.3,2.9,4.9,6.6,8.2,8.8c-1.3-4.5-3.4-14.4-1.7-24.8c0.3-9.7,1.7-14,1.8-14.2c0,0,0.5,4.9,0.2,14.3l-0.3,0l0.3,0 c-0.4,5.9,1.3,11.5,2.6,14.9c0.6-6,2.2-17.6,5.5-23.4c-2.5-8.4-1.7-14.8-1.7-15c0,0,1,5.5,3.1,12.7l0,0l0.6,2.2 c0,0.1,1.8,5.9,6.9,10.3c-0.6-9.6,0.7-21,3.2-26.8c2.5-7,2.2-16.7,2.2-16.8c0,0,2.3,9.9-0.3,17.3c0,0.6,0.2,2.8,2,4.6 c0.1-4.7,1.4-8.9,2.5-12.7c1.2-4.1,2.3-7.6,1.4-10.3c-3.1-3.7-8.3-12.8-8.5-13.1c0,0,7.2,8.5,10.1,12c2.2,2,4.8,3.4,6.7,4.3 c-2.6-5.4-3-11.7-3.4-17.2c-0.4-5.9-0.8-11.5-3.7-14.9l-3.3-3.8l0.2,0.1c-2.1-2.4-4.5-5-4.5-5c0.3,0.2,7.1,4.8,9,7.2 c0.8,0.3,4.3,1.6,7.9-0.8c-5.2-2.5-9.1-7.8-13-12.8c-4.2-5.6-8.6-11.3-14.2-13l-3.6-1.1l0.4-0.1c-2.9-1.1-6-2.2-6-2.2 c0.2,0,6,0.2,9.5,1.4c1.2-0.3,6.4-1.3,11-0.5c-2.3-2.7-8.5-7-22.7-5.2l-3.2,0.4l2.4-2.1c8.3-7.5,16.3-11.2,24.5-11.2c0,0,0,0,0.1,0 c-1.2-1.2-3.3-2.7-6.4-3.4c-6.5-1.5-14.5,0.9-23.8,7l-1.7,1.1l0.1-2c0.5-8.5,0-18.9-9-23.8c-1.1-0.6-2.1-1.1-3.1-1.6 c-5.6-3-10-5.3-12-8.8c-0.3,5.2,1.4,9.6,5.3,13.3c2.5,2.4,2.5,4.7,2.2,5.9c4.5,3.6,6.9,8,7,8.2c0,0-3.7-3.1-7.8-6.2l0,0l-1-0.8 c-10.9-8.9-27.1-8.9-31.8-8.7c-0.7,0-1.4,0.1-2.2,0.1c-5.2,0.3-12.4,0.7-17.6-1.3c2.1,2.4,4.3,4.1,6.9,5.8c8,2.9,10.8,6.2,10.9,6.3 c0,0-4.2-1.7-11.7-4.5l0-0.1l0,0.1c-11.9-4.5-16.6-2.6-21.2-0.7c-2.8,1.2-5.5,2.3-9.6,1.7c-5-0.7-8.5-2.4-10.8-3.9 c1.5,2.9,4,6.7,7.6,8.9l1.1,0.7c3.9,2.3,10.1,4,10.1,4c-0.3,0-7.7-0.1-12-2.9c-20.4-3.2-26.8,3.6-32,9.1c-1.6,1.7-3,3.2-4.7,4.2 c3.1,0.6,4.6,0.3,5,0.2c6.5-4.5,16.8-3.7,17.2-3.7c0,0-9.6,1.1-15.5,4.9l-0.8,0.5C47.6,52,43.7,61.3,40.6,68.7 C38.3,74.2,36.3,79,33,81c-4,2.5-7.1,3.8-9.1,4.5c1.4,0.5,3.3,1.1,5.6,1.5c0.9-2.2,1.7-3.1,1.8-3.2c0,0,0.5,1.6,0.1,3.5l0.1,0 l-0.4,1.1c0,0,0,0,0,0h0l0,0c-3.8,10.1-0.5,30.6,2.7,39.4c1-5.8,4.4-11.9,5.1-13c0.8-6.5,3.4-12.1,3.5-12.3c0,0-0.8,6.5-1.6,12.8 c-1.2,12.8,8.2,29.1,11.1,33.9c6.2-11.1,13.3-39.3,13.4-39.6c0,0-5.9,31.7-12.5,42C52.6,152.4,51.2,155.4,49.5,158.1z M119.6,233.2 c2.9-1.1,5.8-2.2,8.9-3.3c16-5.7,36.8-11.4,60.1-13.9l-8.6-19.8c-0.7-0.2-2-1.5-5.1-9.2c-0.3,1.8-0.3,4.3,0.7,6.7l1,2.2l-2.2-0.9 c-8-3.2-9.9-9.6-10.3-13.3c-1.1,1.6-2.5,4.1-3,6.7l-0.3,1.8l-1.3-1.3c-7.2-6.8-2.5-17.9-2.3-18.4l0.1-0.3l0.5-0.3 c4.7-2.5,11.8-6.2,13.6-14.2c1.5-6.8,1.2-15.5-8.2-18.5c-2.5,3-7.1,5-12.9,5.6c-1,2.8-5,13.5-11.4,14.1l-1.4,0.1l0.4-1.4 c0-0.1,3.7-14.2,4.8-23.4c-3.8-1-7.1-2.5-10.2-4.3l0,0c0,0-0.1,0-0.1-0.1c-11.6-6.9-18.1-18.2-20.4-22.7 c-5.5,10.6-11.1,18.8-16.2,25.1c4.8-1,12.4-1.4,15-0.6c1.8,0.5,4.1,3,6.2,5.3c-5.9-1.3-19.3-0.9-26.2,1.1 c-9.5,10.2-16.4,13.2-16.9,13.4l-3,1.3l1.8-2.8c0.4-0.6,0.8-1.4,1.2-2.1c-4.9,4.6-10.9,7.8-13,8.8c0.7,3.8,2.5,19.7-13.5,26.8 c0.6,1.3,3.1,3.4,4.9,5.1c2.6,2.3,5.2,4.7,6.4,6.9c1.9,3.7,4.6,8.8,7.3,8.9l1,0.1l-0.1,1c-0.1,1.8,2.8,4.6,5.2,6.8 c1.9,1.8,3.7,3.5,4.4,5c0.3,0.6,0.6,1.4,0.9,2.3c1.4,3.7,3.4,8.8,8.6,10.2c3.7,1,9.7-1.9,15-4.4c4.1-2,7.6-3.7,10.2-3.7 c0,0,0.1,0,0.1,0C116.5,219.7,118.9,229.5,119.6,233.2z M362.4,447.6c-0.2-3.9-3.5-37.6-48.7-126.4c-12.8-25.2-38.1-40.3-52-47 l-0.4-0.2l-0.1-0.5c0-0.1-3.3-13.4-10.3-25.4l0,0c-0.9-1.6-0.9-4.1-0.9-7.5c0-5.4-0.1-12.8-3.8-20.8c-45.6-8.2-88.8,2-117,12 c-32.1,11.4-53.3,25.4-55.2,27.4c-4.3,4.6-7.3,23-7.4,23.2l-0.1,0.4l-0.4,0.2c-2.2,1.3-4.6,2.8-7.2,4.3 c-16.2,9.4-38.5,22.4-44.9,47.7c-4.1,16.3-5.8,49.6-7.3,78.9c-1.3,24.8-2.3,46.2-4.6,55.7C50.4,505.3,220.5,501.3,277,490 C329.9,479.4,359.2,450.8,362.4,447.6z" fill="#110C0E"/></g></svg>